<?xml version="1.0" encoding="UTF-8" standalone="no"?>
<!-- Created with Inkscape (http://www.inkscape.org/) -->

<svg
   xmlns:dc="http://purl.org/dc/elements/1.1/"
   xmlns:cc="http://creativecommons.org/ns#"
   xmlns:rdf="http://www.w3.org/1999/02/22-rdf-syntax-ns#"
   xmlns:svg="http://www.w3.org/2000/svg"
   xmlns="http://www.w3.org/2000/svg"
   xmlns:sodipodi="http://sodipodi.sourceforge.net/DTD/sodipodi-0.dtd"
   xmlns:inkscape="http://www.inkscape.org/namespaces/inkscape"
   width="29.64345mm"
   height="12.587469mm"
   viewBox="0 0 29.64345 12.587469"
   version="1.1"
   id="svg1400"
   inkscape:version="0.92.5 (2060ec1f9f, 2020-04-08)"
   sodipodi:docname="abblogo.svg">
  <defs
     id="defs1394">
    <clipPath
       id="clip9">
      <path
         inkscape:connector-curvature="0"
         d="m 507,57 h 10 v 15.53125 h -10 z m 0,0"
         id="path137" />
    </clipPath>
    <clipPath
       id="clip8">
      <path
         inkscape:connector-curvature="0"
         d="m 507,42.519531 h 10 V 58 h -10 z m 0,0"
         id="path134" />
    </clipPath>
    <clipPath
       id="clip7">
      <path
         inkscape:connector-curvature="0"
         d="m 517,57 h 12 v 15.53125 h -12 z m 0,0"
         id="path131" />
    </clipPath>
    <clipPath
       id="clip6">
      <path
         inkscape:connector-curvature="0"
         d="m 517,42.519531 h 10 V 58 h -10 z m 0,0"
         id="path128" />
    </clipPath>
    <clipPath
       id="clip5">
      <path
         inkscape:connector-curvature="0"
         d="m 531,57 h 10 v 15.53125 h -10 z m 0,0"
         id="path125" />
    </clipPath>
    <clipPath
       id="clip4">
      <path
         inkscape:connector-curvature="0"
         d="m 531,42.519531 h 10 V 58 h -10 z m 0,0"
         id="path122" />
    </clipPath>
    <clipPath
       id="clip3">
      <path
         inkscape:connector-curvature="0"
         d="m 541,57 h 11.75781 V 72.53125 H 541 Z m 0,0"
         id="path119" />
    </clipPath>
    <clipPath
       id="clip2">
      <path
         inkscape:connector-curvature="0"
         d="m 541,42.519531 h 11 V 58 h -11 z m 0,0"
         id="path116" />
    </clipPath>
  </defs>
  <sodipodi:namedview
     id="base"
     pagecolor="#ffffff"
     bordercolor="#666666"
     borderopacity="1.0"
     inkscape:pageopacity="0.0"
     inkscape:pageshadow="2"
     inkscape:zoom="0.98994949"
     inkscape:cx="-281.64127"
     inkscape:cy="-260.00163"
     inkscape:document-units="mm"
     inkscape:current-layer="layer1"
     showgrid="false"
     fit-margin-top="1"
     fit-margin-left="1"
     fit-margin-right="1"
     fit-margin-bottom="1"
     inkscape:window-width="1920"
     inkscape:window-height="1037"
     inkscape:window-x="0"
     inkscape:window-y="0"
     inkscape:window-maximized="1" />
  <metadata
     id="metadata1397">
    <rdf:RDF>
      <cc:Work
         rdf:about="">
        <dc:format>image/svg+xml</dc:format>
        <dc:type
           rdf:resource="http://purl.org/dc/dcmitype/StillImage" />
        <dc:title></dc:title>
      </cc:Work>
    </rdf:RDF>
  </metadata>
  <g
     inkscape:label="Layer 1"
     inkscape:groupmode="layer"
     id="layer1"
     transform="translate(-166.35585,-13.99986)">
    <path
       inkscape:connector-curvature="0"
       id="path146"
       d="m 169.17073,20.454136 -1.81488,5.133192 h 2.6734 l 0.74965,-2.244824 h 1.71014 v -2.888368 z m 0,0"
       style="fill:#e3110a;fill-opacity:1;fill-rule:nonzero;stroke:none;stroke-width:0.35277778" />
    <path
       inkscape:connector-curvature="0"
       id="path148"
       d="m 171.0986,14.99986 -1.81488,5.133193 h 3.20532 V 14.99986 Z m 0,0"
       style="fill:#e3110a;fill-opacity:1;fill-rule:nonzero;stroke:none;stroke-width:0.35277778" />
    <path
       inkscape:connector-curvature="0"
       id="path150"
       d="m 172.81013,20.454136 v 2.888368 h 1.71014 l 0.74965,2.244824 h 2.6734 l -1.81488,-5.133192 z m 0,0"
       style="fill:#e3110a;fill-opacity:1;fill-rule:nonzero;stroke:none;stroke-width:0.35277778" />
    <path
       inkscape:connector-curvature="0"
       id="path152"
       d="m 172.81013,14.99986 v 5.133193 h 3.20531 l -1.81625,-5.133193 z m 0,0"
       style="fill:#e3110a;fill-opacity:1;fill-rule:nonzero;stroke:none;stroke-width:0.35277778" />
    <g
       transform="matrix(0.3527778,0,0,0.3527778,-9.2708334e-6,-8.5791667e-5)"
       style="clip-rule:nonzero"
       id="g156"
       clip-path="url(#clip2)">
      <path
         inkscape:connector-curvature="0"
         id="path154"
         d="m 551.01562,57.070312 c -0.92968,-1.253906 -2.14843,-2.277343 -3.5625,-2.964843 1.64844,-1.152344 2.72657,-3.058594 2.72657,-5.21875 0,-3.515625 -2.85157,-6.367188 -6.36719,-6.367188 h -2.12109 v 14.550781 z m 0,0"
         style="fill:#e3110a;fill-opacity:1;fill-rule:nonzero;stroke:none" />
    </g>
    <g
       transform="matrix(0.3527778,0,0,0.3527778,-9.2708334e-6,-8.5791667e-5)"
       style="clip-rule:nonzero"
       id="g160"
       clip-path="url(#clip3)">
      <path
         inkscape:connector-curvature="0"
         id="path158"
         d="M 541.69141,57.980469 V 72.53125 h 1.51562 c 5.35938,0 9.54688,-4.339844 9.54688,-9.699219 0,-1.769531 -0.32422,-3.425781 -1.14844,-4.851562 z m 0,0"
         style="fill:#e3110a;fill-opacity:1;fill-rule:nonzero;stroke:none" />
    </g>
    <g
       transform="matrix(0.3527778,0,0,0.3527778,-9.2708334e-6,-8.5791667e-5)"
       style="clip-rule:nonzero"
       id="g164"
       clip-path="url(#clip4)">
      <path
         inkscape:connector-curvature="0"
         id="path162"
         d="m 540.78125,42.519531 h -9.09375 v 14.550781 h 9.09375 z m 0,0"
         style="fill:#e3110a;fill-opacity:1;fill-rule:nonzero;stroke:none" />
    </g>
    <g
       transform="matrix(0.3527778,0,0,0.3527778,-9.2708334e-6,-8.5791667e-5)"
       style="clip-rule:nonzero"
       id="g168"
       clip-path="url(#clip5)">
      <path
         inkscape:connector-curvature="0"
         id="path166"
         d="m 531.6875,72.53125 h 9.09375 V 57.980469 h -9.09375 z m 0,0"
         style="fill:#e3110a;fill-opacity:1;fill-rule:nonzero;stroke:none" />
    </g>
    <g
       transform="matrix(0.3527778,0,0,0.3527778,-9.2708334e-6,-8.5791667e-5)"
       style="clip-rule:nonzero"
       id="g172"
       clip-path="url(#clip6)">
      <path
         inkscape:connector-curvature="0"
         id="path170"
         d="m 526.46094,57.070312 c -0.92969,-1.253906 -2.14844,-2.277343 -3.5625,-2.964843 1.64843,-1.152344 2.72656,-3.058594 2.72656,-5.21875 0,-3.515625 -2.85156,-6.367188 -6.36719,-6.367188 h -2.12109 v 14.550781 z m 0,0"
         style="fill:#e3110a;fill-opacity:1;fill-rule:nonzero;stroke:none" />
    </g>
    <g
       transform="matrix(0.3527778,0,0,0.3527778,-9.2708334e-6,-8.5791667e-5)"
       style="clip-rule:nonzero"
       id="g176"
       clip-path="url(#clip7)">
      <path
         inkscape:connector-curvature="0"
         id="path174"
         d="M 517.13672,57.980469 V 72.53125 h 1.51562 c 5.35938,0 9.54688,-4.339844 9.54688,-9.699219 0,-1.769531 -0.32422,-3.425781 -1.14844,-4.851562 z m 0,0"
         style="fill:#e3110a;fill-opacity:1;fill-rule:nonzero;stroke:none" />
    </g>
    <g
       transform="matrix(0.3527778,0,0,0.3527778,-9.2708334e-6,-8.5791667e-5)"
       style="clip-rule:nonzero"
       id="g180"
       clip-path="url(#clip8)">
      <path
         inkscape:connector-curvature="0"
         id="path178"
         d="m 516.22656,42.519531 h -9.09375 v 14.550781 h 9.09375 z m 0,0"
         style="fill:#e3110a;fill-opacity:1;fill-rule:nonzero;stroke:none" />
    </g>
    <g
       transform="matrix(0.3527778,0,0,0.3527778,-9.2708334e-6,-8.5791667e-5)"
       style="clip-rule:nonzero"
       id="g184"
       clip-path="url(#clip9)">
      <path
         inkscape:connector-curvature="0"
         id="path182"
         d="m 507.13281,72.53125 h 9.09375 V 57.980469 h -9.09375 z m 0,0"
         style="fill:#e3110a;fill-opacity:1;fill-rule:nonzero;stroke:none" />
    </g>
  </g>
</svg>
