<?xml version="1.0" encoding="utf-8"?>
<!-- Generator: Adobe Illustrator 26.1.0, SVG Export Plug-In . SVG Version: 6.00 Build 0)  -->
<svg version="1.1" id="Layer_1" xmlns="http://www.w3.org/2000/svg" xmlns:xlink="http://www.w3.org/1999/xlink" x="0px" y="0px"
	 viewBox="0 0 384 242.1" style="enable-background:new 0 0 384 242.1;" xml:space="preserve">
<path d="M62.5,89.7h7.9L84,114.6h13.6l-14.7-26c4.3-1.2,7.7-3.4,10.2-6.5c2.4-3.1,3.7-7.3,3.7-12.4c0-6.8-1.6-11.8-4.9-15.1
	c-3.3-3.3-8.4-4.9-15.3-4.9H50.3v64.9h12.3V89.7z M62.5,60.2h15.5c2.2,0,3.7,0.5,4.5,1.4c0.8,0.9,1.3,2.5,1.3,4.7V73
	c0,4.3-1.9,6.5-5.8,6.5H62.5V60.2z M201.3,113.6c2.5-0.7,4.7-1.7,6.5-3.2c1.8-1.5,3.2-3.4,4.2-5.9c1-2.4,1.5-5.4,1.5-8.8
	c0-3.9-1-7.1-3-9.6c-2-2.5-4.7-4.3-8.2-5.2c3-1.1,5.4-3,7.1-5.4c1.7-2.5,2.6-5.6,2.6-9.2c0-2.9-0.5-5.5-1.4-7.6
	c-1-2.1-2.3-3.8-4-5.1c-1.7-1.3-3.8-2.3-6.2-2.9c-2.4-0.6-5.1-0.9-8-0.9h-27.5v64.9h27.9C195.9,114.6,198.7,114.3,201.3,113.6
	 M177.2,60.2h16.8c3.5,0,5.3,1.6,5.3,4.9v5c0,1.9-0.4,3.3-1.1,4.3c-0.7,1-2.1,1.4-4.2,1.4h-16.8V60.2z M177.2,86.4H195
	c3.8,0,5.7,1.8,5.7,5.5v6.4c0,2-0.5,3.5-1.5,4.4c-1,0.9-2.5,1.4-4.6,1.4h-17.4V86.4z M88.2,153.8H62.5v-26.7H50.3v64.9h12.3v-27.8
	h25.7v27.8h12.3v-64.9H88.2V153.8z M208.5,169.5c0,4.3-1.1,7.6-3.2,9.9c-2.2,2.4-5.4,3.6-9.8,3.6c-4.3,0-7.5-1.2-9.6-3.6
	c-2.1-2.4-3.2-5.7-3.2-9.9v-42.3h-12.3V169c0,3.8,0.6,7.2,1.7,10.3c1.2,3,2.8,5.6,5,7.7c2.2,2.1,4.8,3.7,7.9,4.9
	c3.1,1.1,6.6,1.7,10.5,1.7c3.9,0,7.4-0.6,10.5-1.7c3.1-1.1,5.7-2.8,7.9-4.9c2.2-2.1,3.8-4.7,5-7.7c1.2-3,1.7-6.4,1.7-10.2v-41.8
	h-12.1V169.5z M263.2,155.3l-11-2.9c-3.1-0.8-5.4-1.9-6.9-3.2c-1.5-1.3-2.3-3.2-2.3-5.7c0-2.4,1-4.2,2.9-5.6c2-1.4,4.6-2,8.1-2
	c1.4,0,2.8,0.1,4.2,0.4c1.4,0.3,2.6,0.8,3.7,1.5c1.1,0.7,2,1.7,2.7,2.9c0.7,1.2,1.2,2.7,1.4,4.5h12.3c-0.3-3.4-1.1-6.3-2.5-8.8
	c-1.3-2.5-3-4.5-5.1-6.1c-2.1-1.6-4.5-2.8-7.4-3.5c-2.8-0.8-5.9-1.1-9.1-1.1c-3.6,0-6.9,0.4-9.8,1.3c-2.9,0.9-5.4,2.1-7.4,3.7
	c-2,1.6-3.6,3.5-4.7,5.7c-1.1,2.2-1.7,4.6-1.7,7.2c0,4.8,1.3,8.7,3.8,11.9c2.6,3.2,6.5,5.5,11.8,6.9l12.6,3.4
	c2.9,0.7,5.1,1.8,6.5,3.2c1.4,1.4,2.1,3.2,2.1,5.5c0,2.9-1.2,5-3.7,6.5c-2.5,1.5-5.5,2.3-9.1,2.3c-3.8,0-6.9-0.8-9.3-2.4
	c-2.4-1.6-3.9-4.4-4.3-8.2h-12.3c0.2,3.8,1.1,7,2.5,9.6c1.4,2.6,3.3,4.8,5.6,6.5c2.3,1.7,5,2.9,8,3.6c3.1,0.8,6.4,1.1,10,1.1
	c3.7,0,7-0.4,10.1-1.3c3.1-0.9,5.7-2.1,7.9-3.8c2.2-1.6,3.9-3.7,5.1-6c1.2-2.4,1.8-5,1.8-8c0-5.4-1.4-9.5-4.2-12.5
	C272.9,159,268.7,156.8,263.2,155.3 M333.7,137.7v-10.5h-44.3v64.9h44.3v-10.5h-32v-17.5h27.6v-10.5h-27.6v-15.9H333.7z
	 M116.8,114.5h26.3v-11.9h11.9v-41l-11.9,0v-12h-26.3v12h26.3v40.9h-26.3V61.6h-11.9l0,40.9h11.9V114.5z M232.9,114.5h26.3l0-12H271
	v-41l-11.9,0v-12h-26.3v12h26.3v40.9h-26.3V61.6H221l0,40.9h11.9V114.5z M161,139.1h-11.9v-12h-26.3v12h26.3v40.9h-26.3v-40.9h-11.9
	v40.9h11.9v12h26.3v-12H161V139.1z"/>
</svg>
