<svg xmlns="http://www.w3.org/2000/svg" width="231" height="40" viewBox="0 0 231 40">
  <title>
      TU Delft Robotics Institute
  </title>
  <g>
    <path d="M4.4 29.4L8.3 29.4 8.3 17.9 12.6 17.9 12.6 15.1 0 15.1 0 17.9 4.4 17.9 4.4 29.4ZM13.7 8.1C12.8 8.4 11.8 8.1 11.8 6.8 11.8 4.8 16.4 3.2 17 1.4 17.2 1 17.2 0.7 17 0.7 16.8 0.7 16.9 0.9 16.6 1.2 14.7 3.2 11.6 3.2 9.1 4.3 7.5 5 2.9 7.2 4 12.2 4 12.5 4.1 13.3 4.3 13.3 4.5 13.3 4.5 12.8 4.4 12.2 4.4 9.2 7.9 8.4 9 6.5 9.1 6.2 9.4 5.9 9.4 6.1 9.4 6.1 9.4 6.2 9.4 6.4 9 8 7.4 9.1 7.9 10.2 8.4 11.7 10.2 10.6 10.7 9.6 10.9 9.4 10.9 9.2 11 9.2 11.1 9.3 11.1 9.6 11.1 9.8 10.8 11.6 10.4 12.5 9.2 13.5 8.8 13.8 8.1 13.9 8.2 14.1 8.2 14.2 8.5 14.2 8.7 14.1 12 13.9 14.7 10 15.5 7.4 15.6 7.2 15.6 7.1 15.5 7 15.4 6.9 15.3 7.1 15.1 7.2 14.7 7.6 14.2 7.9 13.7 8.1L13.7 8.1ZM54 24.8L54 23.9C54 21.1 52.4 19.1 49.7 19.1 46.6 19.1 45.1 21.6 45.1 24.5 45.1 27.5 46.4 29.7 49.5 29.7 51.9 29.7 53.6 28.6 53.9 26.3L51.9 26.3C51.7 27.8 51 28.4 49.5 28.4 47.6 28.4 47 26.6 47 24.8L54 24.8 54 24.8ZM47.1 23.5C47.1 21.9 48 20.5 49.5 20.5 51.3 20.5 52 21.8 52 23.5L47.1 23.5 47.1 23.5ZM56.2 29.4L58.1 29.4 58.1 15.1 56.2 15.1 56.2 29.4ZM63.9 29.4L63.9 20.8 66.2 20.8 66.2 19.4 63.9 19.4 63.9 17.8C63.9 16.7 64.4 16.5 65.5 16.5 65.8 16.5 66.1 16.5 66.4 16.5L66.4 15C66 14.9 65.6 14.8 65.1 14.8 63.3 14.8 62 15.7 62 17.6L62 19.4 60.1 19.4 60.1 20.8 62 20.8 62 29.4 63.9 29.4 63.9 29.4ZM67.2 19.4L67.2 20.8 68.9 20.8 68.9 27.1C68.9 28.5 68.9 29.7 71.7 29.7 72.1 29.7 72.5 29.7 72.9 29.6L72.9 28.2C72.6 28.2 72.3 28.3 72 28.3 71.3 28.3 70.8 27.9 70.8 27.2L70.8 20.8 73 20.8 73 19.4 70.8 19.4 70.8 16.7 68.9 17.3 68.9 19.4 67.2 19.4 67.2 19.4ZM33.8 16.8L36.7 16.8C39.9 16.8 41.3 19.3 41.3 22.3 41.3 25.2 39.9 27.7 36.7 27.7L33.8 27.7 33.8 16.8 33.8 16.8ZM31.8 29.4L36.7 29.4C42.7 29.4 43.3 24.2 43.3 22.2 43.3 20.3 42.7 15.1 36.7 15.1L31.8 15.1 31.8 29.4 31.8 29.4Z" fill="#2c2c30"/>
    <path d="M90.7 5L90.7 39.6" stroke="#2c2c30" stroke-width="0.8" />
    <path d="M110.5 22.2L113.8 22.2C114.5 22.2 115.1 22.2 115.5 22 115.9 21.9 116.2 21.6 116.4 21.3 116.6 21 116.7 20.6 116.7 20.3 116.7 19.7 116.5 19.2 116.1 18.9 115.7 18.5 115.1 18.3 114.2 18.3L110.5 18.3 110.5 22.2 110.5 22.2ZM109 28.8L109 17 114.1 17C115.2 17 115.9 17.1 116.5 17.4 117 17.6 117.4 17.9 117.8 18.5 118.1 19 118.2 19.6 118.2 20.3 118.2 21.1 118 21.8 117.4 22.4 116.9 22.9 116.1 23.3 115 23.5 115.4 23.7 115.7 23.9 115.9 24.1 116.4 24.5 116.8 25 117.2 25.6L119.2 28.8 117.3 28.8 115.7 26.4C115.3 25.7 114.9 25.1 114.6 24.8 114.3 24.4 114.1 24.1 113.9 24 113.6 23.8 113.4 23.7 113.2 23.7 113 23.6 112.7 23.6 112.3 23.6L110.5 23.6 110.5 28.8 109 28.8 109 28.8ZM121.4 24.6C121.4 25.7 121.6 26.5 122.1 27 122.6 27.6 123.2 27.8 123.9 27.8 124.6 27.8 125.2 27.6 125.6 27 126.1 26.5 126.3 25.6 126.3 24.5 126.3 23.5 126.1 22.7 125.6 22.1 125.1 21.6 124.6 21.3 123.9 21.3 123.2 21.3 122.6 21.6 122.1 22.1 121.6 22.6 121.4 23.5 121.4 24.6L121.4 24.6ZM119.9 24.6C119.9 23 120.4 21.8 121.2 21 121.9 20.4 122.8 20.1 123.9 20.1 125 20.1 126 20.5 126.7 21.2 127.4 22 127.8 23.1 127.8 24.4 127.8 25.5 127.6 26.4 127.3 27 127 27.7 126.5 28.2 125.9 28.5 125.3 28.9 124.6 29 123.9 29 122.7 29 121.7 28.6 121 27.9 120.3 27.1 119.9 26 119.9 24.6L119.9 24.6ZM130.7 24.5C130.7 25.5 130.9 26.3 131.1 26.7 131.6 27.5 132.2 27.8 133 27.8 133.6 27.8 134.1 27.6 134.6 27 135 26.5 135.3 25.6 135.3 24.6 135.3 23.4 135 22.6 134.6 22.1 134.2 21.6 133.6 21.3 133 21.3 132.4 21.3 131.9 21.6 131.4 22.1 131 22.7 130.7 23.5 130.7 24.5L130.7 24.5ZM130.8 28.8L129.4 28.8 129.4 17 130.9 17 130.9 21.2C131.5 20.5 132.2 20.1 133.2 20.1 133.7 20.1 134.2 20.2 134.6 20.4 135.1 20.6 135.5 20.9 135.8 21.3 136 21.7 136.3 22.2 136.4 22.7 136.6 23.2 136.7 23.8 136.7 24.4 136.7 25.9 136.3 27 135.6 27.8 134.9 28.6 134.1 29 133.1 29 132.1 29 131.3 28.6 130.8 27.8L130.8 28.8 130.8 28.8ZM139.4 24.6C139.4 25.7 139.6 26.5 140.1 27 140.5 27.6 141.1 27.8 141.8 27.8 142.5 27.8 143.1 27.6 143.6 27 144.1 26.5 144.3 25.6 144.3 24.5 144.3 23.5 144.1 22.7 143.6 22.1 143.1 21.6 142.5 21.3 141.8 21.3 141.1 21.3 140.5 21.6 140.1 22.1 139.6 22.6 139.4 23.5 139.4 24.6L139.4 24.6ZM137.9 24.6C137.9 23 138.3 21.8 139.2 21 139.9 20.4 140.8 20.1 141.8 20.1 143 20.1 143.9 20.5 144.7 21.2 145.4 22 145.7 23.1 145.7 24.4 145.7 25.5 145.6 26.4 145.3 27 144.9 27.7 144.5 28.2 143.8 28.5 143.2 28.9 142.6 29 141.8 29 140.7 29 139.7 28.6 139 27.9 138.3 27.1 137.9 26 137.9 24.6L137.9 24.6ZM150.5 27.5L150.7 28.8C150.3 28.9 150 28.9 149.6 28.9 149.1 28.9 148.7 28.9 148.4 28.7 148.2 28.5 148 28.3 147.8 28 147.7 27.8 147.7 27.2 147.7 26.3L147.7 21.4 146.6 21.4 146.6 20.3 147.7 20.3 147.7 18.2 149.1 17.3 149.1 20.3 150.5 20.3 150.5 21.4 149.1 21.4 149.1 26.4C149.1 26.8 149.1 27.1 149.2 27.2 149.2 27.3 149.3 27.4 149.4 27.5 149.5 27.6 149.7 27.6 149.9 27.6 150 27.6 150.2 27.6 150.5 27.5L150.5 27.5ZM151.9 28.8L153.3 28.8 153.3 20.3 151.9 20.3 151.9 28.8 151.9 28.8ZM151.9 18.7L153.3 18.7 153.3 17 151.9 17 151.9 18.7 151.9 18.7ZM161 25.7L162.3 25.9C162.2 26.9 161.8 27.6 161.2 28.2 160.5 28.8 159.8 29 158.9 29 157.7 29 156.8 28.6 156.1 27.9 155.4 27.1 155.1 26 155.1 24.6 155.1 23.7 155.2 22.9 155.5 22.2 155.8 21.5 156.3 21 156.9 20.6 157.5 20.3 158.1 20.1 158.9 20.1 159.8 20.1 160.5 20.3 161.1 20.8 161.7 21.3 162 21.9 162.2 22.8L160.8 23C160.7 22.4 160.5 22 160.1 21.7 159.8 21.4 159.4 21.3 158.9 21.3 158.2 21.3 157.6 21.5 157.2 22.1 156.7 22.6 156.5 23.4 156.5 24.6 156.5 25.7 156.7 26.5 157.2 27.1 157.6 27.6 158.2 27.8 158.8 27.8 159.4 27.8 159.9 27.7 160.2 27.3 160.6 27 160.9 26.4 161 25.7L161 25.7ZM163 26.3L164.4 26.1C164.5 26.6 164.7 27.1 165.1 27.4 165.4 27.7 165.9 27.8 166.6 27.8 167.2 27.8 167.7 27.7 168 27.4 168.3 27.2 168.5 26.8 168.5 26.5 168.5 26.2 168.4 25.9 168.1 25.7 167.9 25.6 167.4 25.4 166.6 25.2 165.6 24.9 164.9 24.7 164.5 24.5 164.1 24.3 163.7 24.1 163.5 23.7 163.3 23.4 163.2 23 163.2 22.6 163.2 22.2 163.3 21.8 163.5 21.5 163.7 21.2 163.9 20.9 164.2 20.7 164.4 20.5 164.7 20.4 165.1 20.3 165.5 20.2 165.9 20.1 166.3 20.1 167 20.1 167.5 20.2 168 20.4 168.5 20.6 168.9 20.8 169.1 21.2 169.4 21.5 169.5 21.9 169.6 22.5L168.2 22.7C168.2 22.2 168 21.9 167.7 21.7 167.4 21.4 167 21.3 166.4 21.3 165.8 21.3 165.3 21.4 165 21.6 164.7 21.8 164.6 22.1 164.6 22.4 164.6 22.6 164.7 22.7 164.8 22.9 164.9 23.1 165.1 23.2 165.3 23.3 165.5 23.3 165.9 23.5 166.6 23.7 167.6 23.9 168.3 24.1 168.7 24.3 169.1 24.5 169.4 24.8 169.6 25.1 169.8 25.4 169.9 25.8 169.9 26.3 169.9 26.8 169.8 27.3 169.5 27.7 169.3 28.1 168.9 28.4 168.3 28.7 167.8 28.9 167.2 29 166.6 29 165.5 29 164.7 28.8 164.1 28.3 163.5 27.9 163.1 27.2 163 26.3L163 26.3ZM176.6 28.8L178.1 28.8 178.1 17 176.6 17 176.6 28.8ZM180.6 28.8L180.6 20.3 181.9 20.3 181.9 21.5C182.5 20.6 183.4 20.1 184.6 20.1 185.1 20.1 185.5 20.2 185.9 20.4 186.4 20.6 186.7 20.8 186.9 21.1 187.1 21.4 187.3 21.8 187.3 22.2 187.4 22.4 187.4 22.9 187.4 23.6L187.4 28.8 186 28.8 186 23.6C186 23 185.9 22.6 185.8 22.3 185.7 22 185.5 21.8 185.2 21.6 185 21.4 184.6 21.3 184.3 21.3 183.6 21.3 183.1 21.5 182.7 21.9 182.3 22.3 182 23.1 182 24.2L182 28.8 180.6 28.8 180.6 28.8ZM189 26.3L190.4 26.1C190.5 26.6 190.7 27.1 191.1 27.4 191.5 27.7 192 27.8 192.6 27.8 193.3 27.8 193.7 27.7 194.1 27.4 194.4 27.2 194.5 26.8 194.5 26.5 194.5 26.2 194.4 25.9 194.1 25.7 193.9 25.6 193.4 25.4 192.7 25.2 191.6 24.9 190.9 24.7 190.5 24.5 190.1 24.3 189.8 24.1 189.6 23.7 189.4 23.4 189.3 23 189.3 22.6 189.3 22.2 189.4 21.8 189.5 21.5 189.7 21.2 189.9 20.9 190.2 20.7 190.4 20.5 190.7 20.4 191.1 20.3 191.5 20.2 191.9 20.1 192.3 20.1 193 20.1 193.6 20.2 194.1 20.4 194.6 20.6 194.9 20.8 195.2 21.2 195.4 21.5 195.6 21.9 195.7 22.5L194.3 22.7C194.2 22.2 194 21.9 193.7 21.7 193.4 21.4 193 21.3 192.5 21.3 191.8 21.3 191.3 21.4 191.1 21.6 190.8 21.8 190.6 22.1 190.6 22.4 190.6 22.6 190.7 22.7 190.8 22.9 190.9 23.1 191.1 23.2 191.4 23.3 191.5 23.3 191.9 23.5 192.6 23.7 193.6 23.9 194.3 24.1 194.7 24.3 195.1 24.5 195.4 24.8 195.6 25.1 195.9 25.4 196 25.8 196 26.3 196 26.8 195.8 27.3 195.6 27.7 195.3 28.1 194.9 28.4 194.4 28.7 193.9 28.9 193.3 29 192.6 29 191.5 29 190.7 28.8 190.1 28.3 189.6 27.9 189.2 27.2 189 26.3L189 26.3ZM200.8 27.5L201 28.8C200.6 28.9 200.2 28.9 199.9 28.9 199.4 28.9 199 28.9 198.7 28.7 198.4 28.5 198.2 28.3 198.1 28 198 27.8 197.9 27.2 197.9 26.3L197.9 21.4 196.9 21.4 196.9 20.3 197.9 20.3 197.9 18.2 199.3 17.3 199.3 20.3 200.8 20.3 200.8 21.4 199.3 21.4 199.3 26.4C199.3 26.8 199.4 27.1 199.4 27.2 199.5 27.3 199.5 27.4 199.7 27.5 199.8 27.6 199.9 27.6 200.1 27.6 200.3 27.6 200.5 27.6 200.8 27.5L200.8 27.5ZM202.2 28.8L203.6 28.8 203.6 20.3 202.2 20.3 202.2 28.8 202.2 28.8ZM202.2 18.7L203.6 18.7 203.6 17 202.2 17 202.2 18.7 202.2 18.7ZM208.8 27.5L209.1 28.8C208.7 28.9 208.3 28.9 208 28.9 207.5 28.9 207.1 28.9 206.8 28.7 206.5 28.5 206.3 28.3 206.2 28 206.1 27.8 206 27.2 206 26.3L206 21.4 205 21.4 205 20.3 206 20.3 206 18.2 207.4 17.3 207.4 20.3 208.8 20.3 208.8 21.4 207.4 21.4 207.4 26.4C207.4 26.8 207.4 27.1 207.5 27.2 207.5 27.3 207.6 27.4 207.7 27.5 207.9 27.6 208 27.6 208.2 27.6 208.4 27.6 208.6 27.6 208.8 27.5L208.8 27.5ZM215.7 28.8L215.7 27.6C215.1 28.5 214.2 29 213.1 29 212.6 29 212.1 28.9 211.7 28.7 211.3 28.5 210.9 28.3 210.7 28 210.5 27.7 210.4 27.4 210.3 26.9 210.2 26.7 210.2 26.2 210.2 25.6L210.2 20.3 211.6 20.3 211.6 25C211.6 25.8 211.6 26.3 211.7 26.6 211.8 26.9 212 27.2 212.3 27.5 212.6 27.7 212.9 27.8 213.3 27.8 213.8 27.8 214.2 27.7 214.5 27.4 214.9 27.2 215.2 26.9 215.3 26.5 215.5 26.2 215.6 25.6 215.6 24.9L215.6 20.3 217 20.3 217 28.8 215.7 28.8 215.7 28.8ZM222.3 27.5L222.5 28.8C222.1 28.9 221.8 28.9 221.4 28.9 220.9 28.9 220.5 28.9 220.2 28.7 220 28.5 219.8 28.3 219.6 28 219.5 27.8 219.5 27.2 219.5 26.3L219.5 21.4 218.4 21.4 218.4 20.3 219.5 20.3 219.5 18.2 220.9 17.3 220.9 20.3 222.3 20.3 222.3 21.4 220.9 21.4 220.9 26.4C220.9 26.8 220.9 27.1 221 27.2 221 27.3 221.1 27.4 221.2 27.5 221.3 27.6 221.5 27.6 221.7 27.6 221.9 27.6 222.1 27.6 222.3 27.5L222.3 27.5ZM224.8 23.7L229.5 23.7C229.4 23 229.2 22.5 228.9 22.1 228.5 21.6 227.9 21.3 227.2 21.3 226.5 21.3 226 21.5 225.5 22 225.1 22.4 224.8 23 224.8 23.7L224.8 23.7ZM229.4 26.1L230.9 26.3C230.7 27.1 230.2 27.8 229.6 28.3 229 28.8 228.2 29 227.2 29 226 29 225 28.6 224.3 27.9 223.6 27.1 223.2 26 223.2 24.6 223.2 23.2 223.6 22.1 224.3 21.3 225 20.5 226 20.1 227.1 20.1 228.3 20.1 229.2 20.5 229.9 21.3 230.6 22 230.9 23.1 230.9 24.5 230.9 24.6 230.9 24.8 230.9 24.9L224.7 24.9C224.7 25.9 225 26.6 225.5 27.1 225.9 27.6 226.5 27.8 227.2 27.8 227.7 27.8 228.2 27.7 228.6 27.4 228.9 27.1 229.2 26.7 229.4 26.1L229.4 26.1Z" fill="#2c2c30"/>
    <path d="M21.2 26.9C23 26.9 24 25.7 24 24L24 15.1 27.9 15.1 27.9 24.2C27.9 28.2 24.8 29.7 21.2 29.7 17.7 29.7 14.5 28.2 14.5 24.2L14.5 15.1 18.4 15.1 18.4 24C18.4 25.7 19.4 26.9 21.2 26.9L21.2 26.9Z" fill="#00abd8"/>
  </g>
</svg>
